<mxfile host="65bd71144e">
    <diagram id="ASTWp4ZXTidoFe2xOwB_" name="1b">
        <mxGraphModel dx="880" dy="779" grid="1" gridSize="10" guides="1" tooltips="1" connect="1" arrows="1" fold="1" page="1" pageScale="1" pageWidth="1169" pageHeight="827" math="0" shadow="0">
            <root>
                <mxCell id="0"/>
                <mxCell id="1" parent="0"/>
                <mxCell id="14" style="edgeStyle=none;html=1;exitX=0.5;exitY=0.5;exitDx=0;exitDy=0;exitPerimeter=0;fontFamily=Helvetica;fontSize=18;endArrow=none;endFill=0;strokeWidth=5;" edge="1" parent="1" source="R66rDqUyfR669g0r_bH6-7" target="R66rDqUyfR669g0r_bH6-14">
                    <mxGeometry relative="1" as="geometry"/>
                </mxCell>
                <mxCell id="22" style="edgeStyle=none;html=1;exitX=1;exitY=1;exitDx=0;exitDy=0;exitPerimeter=0;entryX=0;entryY=0;entryDx=0;entryDy=0;strokeWidth=5;fontFamily=Helvetica;fontSize=18;endArrow=none;endFill=0;" edge="1" parent="1" source="R66rDqUyfR669g0r_bH6-7" target="5">
                    <mxGeometry relative="1" as="geometry"/>
                </mxCell>
                <mxCell id="R66rDqUyfR669g0r_bH6-7" value="預約型買家" style="shape=umlActor;verticalLabelPosition=bottom;verticalAlign=top;html=1;fontSize=18;flipV=0;fontStyle=1" parent="1" vertex="1">
                    <mxGeometry x="110" y="100" width="30" height="60" as="geometry"/>
                </mxCell>
                <mxCell id="15" style="edgeStyle=none;html=1;exitX=0.5;exitY=0.5;exitDx=0;exitDy=0;exitPerimeter=0;entryX=0;entryY=0.5;entryDx=0;entryDy=0;strokeWidth=5;fontFamily=Helvetica;fontSize=18;endArrow=none;endFill=0;" edge="1" parent="1" source="R66rDqUyfR669g0r_bH6-10" target="R66rDqUyfR669g0r_bH6-13">
                    <mxGeometry relative="1" as="geometry"/>
                </mxCell>
                <mxCell id="18" style="edgeStyle=none;html=1;exitX=0.5;exitY=0.5;exitDx=0;exitDy=0;exitPerimeter=0;entryX=0;entryY=0.5;entryDx=0;entryDy=0;strokeWidth=5;fontFamily=Helvetica;fontSize=18;endArrow=none;endFill=0;" edge="1" parent="1" source="R66rDqUyfR669g0r_bH6-10" target="7">
                    <mxGeometry relative="1" as="geometry"/>
                </mxCell>
                <mxCell id="R66rDqUyfR669g0r_bH6-10" value="&lt;span style=&quot;color: rgb(230, 237, 243); text-align: start; background-color: rgb(13, 17, 23);&quot;&gt;&lt;font style=&quot;font-size: 18px;&quot;&gt;代銷管理者&lt;/font&gt;&lt;/span&gt;" style="shape=umlActor;verticalLabelPosition=bottom;verticalAlign=top;html=1;fontSize=18;flipV=0;fontStyle=1" parent="1" vertex="1">
                    <mxGeometry x="120" y="260" width="30" height="60" as="geometry"/>
                </mxCell>
                <mxCell id="17" style="edgeStyle=none;html=1;exitX=0.5;exitY=0.5;exitDx=0;exitDy=0;exitPerimeter=0;entryX=1;entryY=0.5;entryDx=0;entryDy=0;strokeWidth=5;fontFamily=Helvetica;fontSize=18;endArrow=none;endFill=0;" edge="1" parent="1" source="R66rDqUyfR669g0r_bH6-11" target="R66rDqUyfR669g0r_bH6-3">
                    <mxGeometry relative="1" as="geometry"/>
                </mxCell>
                <mxCell id="R66rDqUyfR669g0r_bH6-11" value="&lt;span style=&quot;color: rgb(230, 237, 243); text-align: start; background-color: rgb(22, 27, 34);&quot;&gt;&lt;font style=&quot;font-size: 18px;&quot;&gt;代銷接待人員&lt;/font&gt;&lt;/span&gt;" style="shape=umlActor;verticalLabelPosition=bottom;verticalAlign=top;html=1;fontSize=18;flipV=0;fontStyle=1" parent="1" vertex="1">
                    <mxGeometry x="770" y="320" width="30" height="60" as="geometry"/>
                </mxCell>
                <mxCell id="R66rDqUyfR669g0r_bH6-12" value="預約和現場即時參觀系統" style="swimlane;whiteSpace=wrap;html=1;fontSize=18;startSize=23;" parent="1" vertex="1">
                    <mxGeometry x="210" y="70" width="480" height="470" as="geometry"/>
                </mxCell>
                <mxCell id="R66rDqUyfR669g0r_bH6-3" value="&lt;div style=&quot;color: rgb(204, 204, 204); background-color: rgb(31, 31, 31); font-family: Consolas, &amp;quot;Courier New&amp;quot;, monospace; font-size: 14px; line-height: 19px;&quot;&gt;&lt;span style=&quot;color: rgb(230, 237, 243); font-family: -apple-system, BlinkMacSystemFont, &amp;quot;Segoe UI&amp;quot;, &amp;quot;Noto Sans&amp;quot;, Helvetica, Arial, sans-serif, &amp;quot;Apple Color Emoji&amp;quot;, &amp;quot;Segoe UI Emoji&amp;quot;; font-size: 16px; text-align: start; background-color: rgb(22, 27, 34);&quot;&gt;排程安排案例&lt;/span&gt;&lt;br&gt;&lt;/div&gt;" style="ellipse;whiteSpace=wrap;html=1;" parent="R66rDqUyfR669g0r_bH6-12" vertex="1">
                    <mxGeometry x="320" y="180" width="140" height="70" as="geometry"/>
                </mxCell>
                <mxCell id="R66rDqUyfR669g0r_bH6-1" value="&lt;span style=&quot;color: rgb(230, 237, 243); font-family: -apple-system, BlinkMacSystemFont, &amp;quot;Segoe UI&amp;quot;, &amp;quot;Noto Sans&amp;quot;, Helvetica, Arial, sans-serif, &amp;quot;Apple Color Emoji&amp;quot;, &amp;quot;Segoe UI Emoji&amp;quot;; font-size: 16px; text-align: start; background-color: rgb(22, 27, 34);&quot;&gt;現場即時參觀申請案例&lt;/span&gt;" style="ellipse;whiteSpace=wrap;html=1;" parent="R66rDqUyfR669g0r_bH6-12" vertex="1">
                    <mxGeometry x="320" y="50" width="140" height="70" as="geometry"/>
                </mxCell>
                <mxCell id="R66rDqUyfR669g0r_bH6-14" value="&lt;span style=&quot;color: rgb(230, 237, 243); font-family: -apple-system, BlinkMacSystemFont, &amp;quot;Segoe UI&amp;quot;, &amp;quot;Noto Sans&amp;quot;, Helvetica, Arial, sans-serif, &amp;quot;Apple Color Emoji&amp;quot;, &amp;quot;Segoe UI Emoji&amp;quot;; font-size: 16px; text-align: start; background-color: rgb(13, 17, 23);&quot;&gt;預約型買家申請案例&lt;/span&gt;" style="ellipse;whiteSpace=wrap;html=1;" parent="R66rDqUyfR669g0r_bH6-12" vertex="1">
                    <mxGeometry x="30" y="50" width="140" height="70" as="geometry"/>
                </mxCell>
                <mxCell id="5" value="&lt;span style=&quot;color: rgb(230, 237, 243); font-family: -apple-system, BlinkMacSystemFont, &amp;quot;Segoe UI&amp;quot;, &amp;quot;Noto Sans&amp;quot;, Helvetica, Arial, sans-serif, &amp;quot;Apple Color Emoji&amp;quot;, &amp;quot;Segoe UI Emoji&amp;quot;; font-size: 16px; text-align: start; background-color: rgb(13, 17, 23);&quot;&gt;結果通知案例&lt;/span&gt;" style="ellipse;whiteSpace=wrap;html=1;" vertex="1" parent="R66rDqUyfR669g0r_bH6-12">
                    <mxGeometry x="40" y="370" width="140" height="70" as="geometry"/>
                </mxCell>
                <mxCell id="7" value="&lt;span style=&quot;color: rgb(230, 237, 243); font-family: -apple-system, BlinkMacSystemFont, &amp;quot;Segoe UI&amp;quot;, &amp;quot;Noto Sans&amp;quot;, Helvetica, Arial, sans-serif, &amp;quot;Apple Color Emoji&amp;quot;, &amp;quot;Segoe UI Emoji&amp;quot;; font-size: 16px; text-align: start; background-color: rgb(22, 27, 34);&quot;&gt;買家登記查詢案例&lt;/span&gt;" style="ellipse;whiteSpace=wrap;html=1;" vertex="1" parent="R66rDqUyfR669g0r_bH6-12">
                    <mxGeometry x="305" y="370" width="140" height="70" as="geometry"/>
                </mxCell>
                <mxCell id="R66rDqUyfR669g0r_bH6-13" value="&lt;span style=&quot;color: rgb(230, 237, 243); font-family: -apple-system, BlinkMacSystemFont, &amp;quot;Segoe UI&amp;quot;, &amp;quot;Noto Sans&amp;quot;, Helvetica, Arial, sans-serif, &amp;quot;Apple Color Emoji&amp;quot;, &amp;quot;Segoe UI Emoji&amp;quot;; font-size: 16px; text-align: start; background-color: rgb(13, 17, 23);&quot;&gt;申請審核案例&lt;/span&gt;" style="ellipse;whiteSpace=wrap;html=1;" parent="R66rDqUyfR669g0r_bH6-12" vertex="1">
                    <mxGeometry y="160" width="140" height="70" as="geometry"/>
                </mxCell>
                <mxCell id="19" style="edgeStyle=none;html=1;exitX=0.5;exitY=0;exitDx=0;exitDy=0;entryX=0.5;entryY=1;entryDx=0;entryDy=0;strokeWidth=5;fontFamily=Helvetica;fontSize=18;endArrow=none;endFill=0;" edge="1" parent="1" source="R66rDqUyfR669g0r_bH6-15" target="5">
                    <mxGeometry relative="1" as="geometry"/>
                </mxCell>
                <mxCell id="20" style="edgeStyle=none;html=1;exitX=0.5;exitY=0;exitDx=0;exitDy=0;entryX=0.757;entryY=0.957;entryDx=0;entryDy=0;entryPerimeter=0;strokeWidth=5;fontFamily=Helvetica;fontSize=18;endArrow=none;endFill=0;" edge="1" parent="1" source="R66rDqUyfR669g0r_bH6-15" target="R66rDqUyfR669g0r_bH6-14">
                    <mxGeometry relative="1" as="geometry"/>
                </mxCell>
                <mxCell id="21" style="edgeStyle=none;html=1;exitX=0.75;exitY=0;exitDx=0;exitDy=0;entryX=0;entryY=0.5;entryDx=0;entryDy=0;strokeWidth=5;fontFamily=Helvetica;fontSize=18;endArrow=none;endFill=0;" edge="1" parent="1" source="R66rDqUyfR669g0r_bH6-15" target="R66rDqUyfR669g0r_bH6-1">
                    <mxGeometry relative="1" as="geometry"/>
                </mxCell>
                <mxCell id="R66rDqUyfR669g0r_bH6-15" value="&amp;lt;&amp;lt;actor&amp;gt;&amp;gt;&lt;br&gt;Line Bot" style="html=1;fontSize=18;" parent="1" vertex="1">
                    <mxGeometry x="395" y="580" width="110" height="50" as="geometry"/>
                </mxCell>
                <mxCell id="16" style="edgeStyle=none;html=1;exitX=0.5;exitY=0.5;exitDx=0;exitDy=0;exitPerimeter=0;entryX=0.986;entryY=0.614;entryDx=0;entryDy=0;entryPerimeter=0;strokeWidth=5;fontFamily=Helvetica;fontSize=18;endArrow=none;endFill=0;" edge="1" parent="1" source="R66rDqUyfR669g0r_bH6-28" target="R66rDqUyfR669g0r_bH6-1">
                    <mxGeometry relative="1" as="geometry"/>
                </mxCell>
                <mxCell id="23" style="edgeStyle=none;html=1;exitX=0;exitY=1;exitDx=0;exitDy=0;exitPerimeter=0;entryX=0.757;entryY=0.043;entryDx=0;entryDy=0;entryPerimeter=0;strokeWidth=5;fontFamily=Helvetica;fontSize=18;endArrow=none;endFill=0;" edge="1" parent="1" source="R66rDqUyfR669g0r_bH6-28" target="5">
                    <mxGeometry relative="1" as="geometry"/>
                </mxCell>
                <mxCell id="R66rDqUyfR669g0r_bH6-28" value="現場即時參觀型買家" style="shape=umlActor;verticalLabelPosition=bottom;verticalAlign=top;html=1;fontSize=18;flipV=0;fontStyle=1" parent="1" vertex="1">
                    <mxGeometry x="810" y="198" width="30" height="60" as="geometry"/>
                </mxCell>
                <mxCell id="11" style="edgeStyle=none;html=1;exitX=1;exitY=1;exitDx=0;exitDy=0;exitPerimeter=0;entryX=0.767;entryY=0.833;entryDx=0;entryDy=0;entryPerimeter=0;" edge="1" parent="1" source="R66rDqUyfR669g0r_bH6-10" target="R66rDqUyfR669g0r_bH6-10">
                    <mxGeometry relative="1" as="geometry"/>
                </mxCell>
            </root>
        </mxGraphModel>
    </diagram>
    <diagram id="YaGuhc5X2_iro5u3-gBy" name="1c">
        <mxGraphModel dx="308" dy="779" grid="1" gridSize="10" guides="1" tooltips="1" connect="1" arrows="1" fold="1" page="1" pageScale="1" pageWidth="1169" pageHeight="827" math="0" shadow="0">
            <root>
                <mxCell id="0"/>
                <mxCell id="1" parent="0"/>
                <mxCell id="duOttw3eZM78fwS1EHmA-1" style="edgeStyle=none;html=1;entryX=0.5;entryY=0;entryDx=0;entryDy=0;strokeWidth=4;fontSize=18;startArrow=none;startFill=0;endArrow=openThin;endFill=0;" parent="1" source="duOttw3eZM78fwS1EHmA-2" target="duOttw3eZM78fwS1EHmA-5" edge="1">
                    <mxGeometry relative="1" as="geometry"/>
                </mxCell>
                <mxCell id="duOttw3eZM78fwS1EHmA-2" value="" style="ellipse;fillColor=strokeColor;" parent="1" vertex="1">
                    <mxGeometry x="215" y="20" width="30" height="30" as="geometry"/>
                </mxCell>
                <mxCell id="duOttw3eZM78fwS1EHmA-3" value="" style="ellipse;html=1;shape=endState;fillColor=strokeColor;" parent="1" vertex="1">
                    <mxGeometry x="215.5" y="504" width="30" height="30" as="geometry"/>
                </mxCell>
                <mxCell id="duOttw3eZM78fwS1EHmA-4" style="edgeStyle=none;html=1;fontSize=18;endArrow=openThin;endFill=0;strokeWidth=4;" parent="1" source="duOttw3eZM78fwS1EHmA-5" target="duOttw3eZM78fwS1EHmA-14" edge="1">
                    <mxGeometry relative="1" as="geometry"/>
                </mxCell>
                <mxCell id="duOttw3eZM78fwS1EHmA-5" value="&lt;font style=&quot;font-size: 18px;&quot;&gt;&lt;b&gt;打開申請頁&lt;/b&gt;&lt;/font&gt;" style="html=1;align=center;verticalAlign=middle;rounded=1;absoluteArcSize=1;arcSize=10;dashed=0;strokeWidth=2;perimeterSpacing=0;" parent="1" vertex="1">
                    <mxGeometry x="160" y="80" width="140" height="40" as="geometry"/>
                </mxCell>
                <mxCell id="duOttw3eZM78fwS1EHmA-6" value="&lt;font style=&quot;font-size: 18px;&quot;&gt;&lt;b&gt;連絡電話&lt;/b&gt;&lt;/font&gt;" style="html=1;align=center;verticalAlign=middle;rounded=1;absoluteArcSize=1;arcSize=10;dashed=0;strokeWidth=2;perimeterSpacing=0;" parent="1" vertex="1">
                    <mxGeometry x="30" y="260" width="140" height="40" as="geometry"/>
                </mxCell>
                <mxCell id="duOttw3eZM78fwS1EHmA-7" value="&lt;font style=&quot;font-size: 18px;&quot;&gt;&lt;b&gt;姓名&lt;/b&gt;&lt;/font&gt;" style="html=1;align=center;verticalAlign=middle;rounded=1;absoluteArcSize=1;arcSize=10;dashed=0;strokeWidth=2;perimeterSpacing=0;" parent="1" vertex="1">
                    <mxGeometry x="190" y="260" width="80" height="40" as="geometry"/>
                </mxCell>
                <mxCell id="duOttw3eZM78fwS1EHmA-8" value="&lt;span style=&quot;font-size: 18px;&quot;&gt;&lt;b&gt;email&lt;/b&gt;&lt;/span&gt;" style="html=1;align=center;verticalAlign=middle;rounded=1;absoluteArcSize=1;arcSize=10;dashed=0;strokeWidth=2;perimeterSpacing=0;" parent="1" vertex="1">
                    <mxGeometry x="299.5" y="260" width="140" height="40" as="geometry"/>
                </mxCell>
                <mxCell id="duOttw3eZM78fwS1EHmA-9" style="edgeStyle=none;html=1;entryX=0.5;entryY=0;entryDx=0;entryDy=0;strokeWidth=4;fontSize=18;startArrow=none;startFill=0;endArrow=openThin;endFill=0;" parent="1" source="duOttw3eZM78fwS1EHmA-10" target="duOttw3eZM78fwS1EHmA-3" edge="1">
                    <mxGeometry relative="1" as="geometry"/>
                </mxCell>
                <mxCell id="duOttw3eZM78fwS1EHmA-10" value="&lt;font style=&quot;font-size: 18px;&quot;&gt;&lt;b&gt;將資料送出&lt;/b&gt;&lt;/font&gt;" style="html=1;align=center;verticalAlign=middle;rounded=1;absoluteArcSize=1;arcSize=10;dashed=0;strokeWidth=2;perimeterSpacing=0;" parent="1" vertex="1">
                    <mxGeometry x="159.5" y="420" width="140" height="40" as="geometry"/>
                </mxCell>
                <mxCell id="duOttw3eZM78fwS1EHmA-11" style="edgeStyle=none;html=1;strokeWidth=4;fontSize=18;endArrow=openThin;endFill=0;" parent="1" source="duOttw3eZM78fwS1EHmA-14" target="duOttw3eZM78fwS1EHmA-7" edge="1">
                    <mxGeometry relative="1" as="geometry"/>
                </mxCell>
                <mxCell id="duOttw3eZM78fwS1EHmA-12" style="edgeStyle=none;html=1;entryX=0.5;entryY=0;entryDx=0;entryDy=0;strokeWidth=4;fontSize=18;endArrow=openThin;endFill=0;" parent="1" source="duOttw3eZM78fwS1EHmA-14" target="duOttw3eZM78fwS1EHmA-6" edge="1">
                    <mxGeometry relative="1" as="geometry">
                        <Array as="points">
                            <mxPoint x="230" y="230"/>
                            <mxPoint x="100" y="230"/>
                        </Array>
                    </mxGeometry>
                </mxCell>
                <mxCell id="duOttw3eZM78fwS1EHmA-13" style="edgeStyle=none;html=1;entryX=0.5;entryY=0;entryDx=0;entryDy=0;strokeWidth=4;fontSize=18;endArrow=openThin;endFill=0;exitX=0.236;exitY=0.516;exitDx=0;exitDy=0;exitPerimeter=0;" parent="1" source="duOttw3eZM78fwS1EHmA-14" target="duOttw3eZM78fwS1EHmA-8" edge="1">
                    <mxGeometry relative="1" as="geometry">
                        <Array as="points">
                            <mxPoint x="230" y="230"/>
                            <mxPoint x="370" y="230"/>
                        </Array>
                    </mxGeometry>
                </mxCell>
                <mxCell id="duOttw3eZM78fwS1EHmA-14" value="" style="html=1;points=[];perimeter=orthogonalPerimeter;fillColor=strokeColor;rounded=1;strokeWidth=2;fontSize=18;rotation=90;" parent="1" vertex="1">
                    <mxGeometry x="229" y="105" width="5" height="130" as="geometry"/>
                </mxCell>
                <mxCell id="duOttw3eZM78fwS1EHmA-15" style="edgeStyle=none;html=1;entryX=0.5;entryY=1;entryDx=0;entryDy=0;strokeWidth=4;fontSize=18;endArrow=none;endFill=0;startArrow=openThin;startFill=0;" parent="1" source="duOttw3eZM78fwS1EHmA-19" target="duOttw3eZM78fwS1EHmA-7" edge="1">
                    <mxGeometry relative="1" as="geometry"/>
                </mxCell>
                <mxCell id="duOttw3eZM78fwS1EHmA-16" style="edgeStyle=none;html=1;entryX=0.5;entryY=1;entryDx=0;entryDy=0;strokeWidth=4;fontSize=18;startArrow=openThin;startFill=0;endArrow=none;endFill=0;" parent="1" source="duOttw3eZM78fwS1EHmA-19" target="duOttw3eZM78fwS1EHmA-8" edge="1">
                    <mxGeometry relative="1" as="geometry">
                        <Array as="points">
                            <mxPoint x="230" y="330"/>
                            <mxPoint x="370" y="330"/>
                        </Array>
                    </mxGeometry>
                </mxCell>
                <mxCell id="duOttw3eZM78fwS1EHmA-17" style="edgeStyle=none;html=1;entryX=0.5;entryY=1;entryDx=0;entryDy=0;strokeWidth=4;fontSize=18;startArrow=openThin;startFill=0;endArrow=none;endFill=0;" parent="1" source="duOttw3eZM78fwS1EHmA-19" target="duOttw3eZM78fwS1EHmA-6" edge="1">
                    <mxGeometry relative="1" as="geometry">
                        <Array as="points">
                            <mxPoint x="230" y="330"/>
                            <mxPoint x="100" y="330"/>
                        </Array>
                    </mxGeometry>
                </mxCell>
                <mxCell id="duOttw3eZM78fwS1EHmA-18" style="edgeStyle=none;html=1;strokeWidth=4;fontSize=18;startArrow=none;startFill=0;endArrow=openThin;endFill=0;" parent="1" source="duOttw3eZM78fwS1EHmA-19" target="duOttw3eZM78fwS1EHmA-10" edge="1">
                    <mxGeometry relative="1" as="geometry"/>
                </mxCell>
                <mxCell id="duOttw3eZM78fwS1EHmA-24" style="edgeStyle=none;html=1;entryX=0.5;entryY=1;entryDx=0;entryDy=0;strokeWidth=4;fontSize=18;startArrow=blockThin;startFill=1;endArrow=none;endFill=0;" parent="1" source="duOttw3eZM78fwS1EHmA-19" target="duOttw3eZM78fwS1EHmA-20" edge="1">
                    <mxGeometry relative="1" as="geometry">
                        <Array as="points">
                            <mxPoint x="230" y="330"/>
                            <mxPoint x="540" y="330"/>
                        </Array>
                    </mxGeometry>
                </mxCell>
                <mxCell id="duOttw3eZM78fwS1EHmA-19" value="" style="html=1;points=[];perimeter=orthogonalPerimeter;fillColor=strokeColor;rounded=1;strokeWidth=2;fontSize=18;rotation=90;" parent="1" vertex="1">
                    <mxGeometry x="227.5" y="306" width="5" height="130" as="geometry"/>
                </mxCell>
                <mxCell id="duOttw3eZM78fwS1EHmA-21" style="edgeStyle=none;html=1;entryX=1.021;entryY=0.526;entryDx=0;entryDy=0;entryPerimeter=0;strokeWidth=4;fontSize=18;startArrow=blockThin;startFill=1;endArrow=none;endFill=0;exitX=0.5;exitY=0;exitDx=0;exitDy=0;" parent="1" source="duOttw3eZM78fwS1EHmA-20" target="duOttw3eZM78fwS1EHmA-14" edge="1">
                    <mxGeometry relative="1" as="geometry">
                        <Array as="points">
                            <mxPoint x="540" y="230"/>
                            <mxPoint x="232" y="230"/>
                        </Array>
                    </mxGeometry>
                </mxCell>
                <mxCell id="duOttw3eZM78fwS1EHmA-20" value="&lt;span style=&quot;font-size: 18px;&quot;&gt;&lt;b&gt;預約日期與時段&lt;/b&gt;&lt;/span&gt;" style="html=1;align=center;verticalAlign=middle;rounded=1;absoluteArcSize=1;arcSize=10;dashed=0;strokeWidth=2;perimeterSpacing=0;" parent="1" vertex="1">
                    <mxGeometry x="470" y="260" width="140" height="40" as="geometry"/>
                </mxCell>
            </root>
        </mxGraphModel>
    </diagram>
    <diagram id="YNBZmlXG5lnyesX3e9GX" name="1d">
        <mxGraphModel dx="1386" dy="779" grid="1" gridSize="10" guides="1" tooltips="1" connect="1" arrows="1" fold="1" page="1" pageScale="1" pageWidth="1169" pageHeight="827" math="0" shadow="0">
            <root>
                <mxCell id="0"/>
                <mxCell id="1" parent="0"/>
                <mxCell id="ivwsBvlBFXZtL3nu1trw-7" value="Person" style="swimlane;fontStyle=1;childLayout=stackLayout;horizontal=1;startSize=26;fillColor=none;horizontalStack=0;resizeParent=1;resizeParentMax=0;resizeLast=0;collapsible=1;marginBottom=0;fontSize=18;" parent="1" vertex="1">
                    <mxGeometry x="40" y="40" width="140" height="78" as="geometry"/>
                </mxCell>
                <mxCell id="ivwsBvlBFXZtL3nu1trw-8" value="# id" style="text;strokeColor=none;fillColor=none;align=left;verticalAlign=top;spacingLeft=4;spacingRight=4;overflow=hidden;rotatable=0;points=[[0,0.5],[1,0.5]];portConstraint=eastwest;fontSize=15;" parent="ivwsBvlBFXZtL3nu1trw-7" vertex="1">
                    <mxGeometry y="26" width="140" height="26" as="geometry"/>
                </mxCell>
                <mxCell id="ivwsBvlBFXZtL3nu1trw-9" value="# name" style="text;strokeColor=none;fillColor=none;align=left;verticalAlign=top;spacingLeft=4;spacingRight=4;overflow=hidden;rotatable=0;points=[[0,0.5],[1,0.5]];portConstraint=eastwest;fontSize=15;" parent="ivwsBvlBFXZtL3nu1trw-7" vertex="1">
                    <mxGeometry y="52" width="140" height="26" as="geometry"/>
                </mxCell>
                <mxCell id="ivwsBvlBFXZtL3nu1trw-17" style="edgeStyle=none;html=1;entryX=0.495;entryY=1.119;entryDx=0;entryDy=0;fontSize=18;strokeWidth=3;endArrow=block;endFill=0;entryPerimeter=0;" parent="1" source="ivwsBvlBFXZtL3nu1trw-11" target="ivwsBvlBFXZtL3nu1trw-15" edge="1">
                    <mxGeometry relative="1" as="geometry">
                        <Array as="points"/>
                    </mxGeometry>
                </mxCell>
                <mxCell id="ivwsBvlBFXZtL3nu1trw-42" style="edgeStyle=none;html=1;strokeWidth=3;fontSize=18;endArrow=none;endFill=0;entryX=0;entryY=0.5;entryDx=0;entryDy=0;" parent="1" source="ivwsBvlBFXZtL3nu1trw-11" target="CJj9vsKW6NzrFs56iuhY-1" edge="1">
                    <mxGeometry relative="1" as="geometry">
                        <Array as="points">
                            <mxPoint x="250" y="300"/>
                        </Array>
                        <mxPoint x="310" y="350" as="targetPoint"/>
                    </mxGeometry>
                </mxCell>
                <mxCell id="ivwsBvlBFXZtL3nu1trw-46" value="1" style="edgeLabel;html=1;align=center;verticalAlign=top;resizable=0;points=[];fontSize=18;" parent="ivwsBvlBFXZtL3nu1trw-42" vertex="1" connectable="0">
                    <mxGeometry x="-0.8459" relative="1" as="geometry">
                        <mxPoint as="offset"/>
                    </mxGeometry>
                </mxCell>
                <mxCell id="ivwsBvlBFXZtL3nu1trw-47" value="1..*" style="edgeLabel;html=1;align=left;verticalAlign=top;resizable=0;points=[];fontSize=18;" parent="ivwsBvlBFXZtL3nu1trw-42" vertex="1" connectable="0">
                    <mxGeometry x="0.8502" relative="1" as="geometry">
                        <mxPoint x="-22" y="20" as="offset"/>
                    </mxGeometry>
                </mxCell>
                <mxCell id="ivwsBvlBFXZtL3nu1trw-64" value="access" style="edgeLabel;html=1;align=center;verticalAlign=middle;resizable=0;points=[];fontSize=18;" parent="ivwsBvlBFXZtL3nu1trw-42" vertex="1" connectable="0">
                    <mxGeometry x="-0.1" y="1" relative="1" as="geometry">
                        <mxPoint x="-22" y="-19" as="offset"/>
                    </mxGeometry>
                </mxCell>
                <mxCell id="ivwsBvlBFXZtL3nu1trw-43" style="edgeStyle=none;html=1;entryX=0.5;entryY=0;entryDx=0;entryDy=0;strokeWidth=3;fontSize=18;endArrow=none;endFill=0;" parent="1" source="ivwsBvlBFXZtL3nu1trw-11" target="ivwsBvlBFXZtL3nu1trw-19" edge="1">
                    <mxGeometry relative="1" as="geometry">
                        <Array as="points">
                            <mxPoint x="110" y="620"/>
                            <mxPoint x="770" y="620"/>
                            <mxPoint x="770" y="100"/>
                            <mxPoint x="650" y="100"/>
                        </Array>
                    </mxGeometry>
                </mxCell>
                <mxCell id="ivwsBvlBFXZtL3nu1trw-56" value="1" style="edgeLabel;html=1;align=right;verticalAlign=middle;resizable=0;points=[];fontSize=18;" parent="ivwsBvlBFXZtL3nu1trw-43" vertex="1" connectable="0">
                    <mxGeometry x="-0.9719" y="-1" relative="1" as="geometry">
                        <mxPoint x="-4" as="offset"/>
                    </mxGeometry>
                </mxCell>
                <mxCell id="ivwsBvlBFXZtL3nu1trw-57" value="1..*" style="edgeLabel;html=1;align=right;verticalAlign=middle;resizable=0;points=[];fontSize=18;" parent="ivwsBvlBFXZtL3nu1trw-43" vertex="1" connectable="0">
                    <mxGeometry x="0.9503" y="-2" relative="1" as="geometry">
                        <mxPoint as="offset"/>
                    </mxGeometry>
                </mxCell>
                <mxCell id="ivwsBvlBFXZtL3nu1trw-61" value="access" style="edgeLabel;html=1;align=center;verticalAlign=middle;resizable=0;points=[];fontSize=18;" parent="ivwsBvlBFXZtL3nu1trw-43" vertex="1" connectable="0">
                    <mxGeometry x="-0.7788" y="-4" relative="1" as="geometry">
                        <mxPoint x="-36" as="offset"/>
                    </mxGeometry>
                </mxCell>
                <mxCell id="ivwsBvlBFXZtL3nu1trw-11" value="Managers" style="swimlane;fontStyle=1;childLayout=stackLayout;horizontal=1;startSize=26;fillColor=none;horizontalStack=0;resizeParent=1;resizeParentMax=0;resizeLast=0;collapsible=1;marginBottom=0;fontSize=18;" parent="1" vertex="1">
                    <mxGeometry x="40" y="270" width="140" height="52" as="geometry"/>
                </mxCell>
                <mxCell id="ivwsBvlBFXZtL3nu1trw-12" value="# level" style="text;strokeColor=none;fillColor=none;align=left;verticalAlign=top;spacingLeft=4;spacingRight=4;overflow=hidden;rotatable=0;points=[[0,0.5],[1,0.5]];portConstraint=eastwest;fontSize=15;" parent="ivwsBvlBFXZtL3nu1trw-11" vertex="1">
                    <mxGeometry y="26" width="140" height="26" as="geometry"/>
                </mxCell>
                <mxCell id="ivwsBvlBFXZtL3nu1trw-18" style="edgeStyle=none;html=1;strokeWidth=3;fontSize=18;endArrow=block;endFill=0;exitX=0.5;exitY=0;exitDx=0;exitDy=0;" parent="1" source="ivwsBvlBFXZtL3nu1trw-14" target="ivwsBvlBFXZtL3nu1trw-9" edge="1">
                    <mxGeometry relative="1" as="geometry">
                        <Array as="points"/>
                    </mxGeometry>
                </mxCell>
                <mxCell id="ivwsBvlBFXZtL3nu1trw-58" style="edgeStyle=none;html=1;entryX=0;entryY=0.25;entryDx=0;entryDy=0;strokeWidth=3;fontSize=18;endArrow=none;endFill=0;" parent="1" source="ivwsBvlBFXZtL3nu1trw-14" target="ivwsBvlBFXZtL3nu1trw-19" edge="1">
                    <mxGeometry relative="1" as="geometry">
                        <Array as="points">
                            <mxPoint x="250" y="120"/>
                            <mxPoint x="540" y="120"/>
                            <mxPoint x="540" y="176"/>
                        </Array>
                    </mxGeometry>
                </mxCell>
                <mxCell id="ivwsBvlBFXZtL3nu1trw-59" value="1" style="edgeLabel;html=1;align=center;verticalAlign=middle;resizable=0;points=[];fontSize=18;" parent="ivwsBvlBFXZtL3nu1trw-58" vertex="1" connectable="0">
                    <mxGeometry x="-0.9296" y="3" relative="1" as="geometry">
                        <mxPoint y="-12" as="offset"/>
                    </mxGeometry>
                </mxCell>
                <mxCell id="ivwsBvlBFXZtL3nu1trw-60" value="1..*" style="edgeLabel;html=1;align=center;verticalAlign=middle;resizable=0;points=[];fontSize=18;" parent="ivwsBvlBFXZtL3nu1trw-58" vertex="1" connectable="0">
                    <mxGeometry x="0.8822" y="1" relative="1" as="geometry">
                        <mxPoint x="9" y="-15" as="offset"/>
                    </mxGeometry>
                </mxCell>
                <mxCell id="ivwsBvlBFXZtL3nu1trw-62" value="access" style="edgeLabel;html=1;align=center;verticalAlign=middle;resizable=0;points=[];fontSize=18;" parent="ivwsBvlBFXZtL3nu1trw-58" vertex="1" connectable="0">
                    <mxGeometry x="-0.4424" y="1" relative="1" as="geometry">
                        <mxPoint x="12" y="-19" as="offset"/>
                    </mxGeometry>
                </mxCell>
                <mxCell id="ivwsBvlBFXZtL3nu1trw-14" value="Sales" style="swimlane;fontStyle=1;childLayout=stackLayout;horizontal=1;startSize=26;fillColor=none;horizontalStack=0;resizeParent=1;resizeParentMax=0;resizeLast=0;collapsible=1;marginBottom=0;fontSize=18;" parent="1" vertex="1">
                    <mxGeometry x="40" y="162" width="140" height="52" as="geometry"/>
                </mxCell>
                <mxCell id="ivwsBvlBFXZtL3nu1trw-15" value="# title" style="text;strokeColor=none;fillColor=none;align=left;verticalAlign=top;spacingLeft=4;spacingRight=4;overflow=hidden;rotatable=0;points=[[0,0.5],[1,0.5]];portConstraint=eastwest;fontSize=15;" parent="ivwsBvlBFXZtL3nu1trw-14" vertex="1">
                    <mxGeometry y="26" width="140" height="26" as="geometry"/>
                </mxCell>
                <mxCell id="ivwsBvlBFXZtL3nu1trw-19" value="Customers" style="swimlane;fontStyle=1;childLayout=stackLayout;horizontal=1;startSize=26;fillColor=none;horizontalStack=0;resizeParent=1;resizeParentMax=0;resizeLast=0;collapsible=1;marginBottom=0;fontSize=18;" parent="1" vertex="1">
                    <mxGeometry x="580" y="150" width="140" height="104" as="geometry"/>
                </mxCell>
                <mxCell id="ivwsBvlBFXZtL3nu1trw-20" value="# phoneNumber" style="text;strokeColor=none;fillColor=none;align=left;verticalAlign=top;spacingLeft=4;spacingRight=4;overflow=hidden;rotatable=0;points=[[0,0.5],[1,0.5]];portConstraint=eastwest;fontSize=15;" parent="ivwsBvlBFXZtL3nu1trw-19" vertex="1">
                    <mxGeometry y="26" width="140" height="26" as="geometry"/>
                </mxCell>
                <mxCell id="ivwsBvlBFXZtL3nu1trw-21" value="# name" style="text;strokeColor=none;fillColor=none;align=left;verticalAlign=top;spacingLeft=4;spacingRight=4;overflow=hidden;rotatable=0;points=[[0,0.5],[1,0.5]];portConstraint=eastwest;fontSize=15;" parent="ivwsBvlBFXZtL3nu1trw-19" vertex="1">
                    <mxGeometry y="52" width="140" height="26" as="geometry"/>
                </mxCell>
                <mxCell id="ivwsBvlBFXZtL3nu1trw-22" value="# email" style="text;strokeColor=none;fillColor=none;align=left;verticalAlign=top;spacingLeft=4;spacingRight=4;overflow=hidden;rotatable=0;points=[[0,0.5],[1,0.5]];portConstraint=eastwest;fontSize=15;" parent="ivwsBvlBFXZtL3nu1trw-19" vertex="1">
                    <mxGeometry y="78" width="140" height="26" as="geometry"/>
                </mxCell>
                <mxCell id="ivwsBvlBFXZtL3nu1trw-27" style="edgeStyle=none;html=1;strokeWidth=3;fontSize=18;endArrow=none;endFill=0;exitX=1;exitY=0.5;exitDx=0;exitDy=0;" parent="1" source="ivwsBvlBFXZtL3nu1trw-24" target="ivwsBvlBFXZtL3nu1trw-19" edge="1">
                    <mxGeometry relative="1" as="geometry"/>
                </mxCell>
                <mxCell id="ivwsBvlBFXZtL3nu1trw-54" value="1" style="edgeLabel;html=1;align=center;verticalAlign=top;resizable=0;points=[];fontSize=18;" parent="ivwsBvlBFXZtL3nu1trw-27" vertex="1" connectable="0">
                    <mxGeometry x="0.8087" y="2" relative="1" as="geometry">
                        <mxPoint as="offset"/>
                    </mxGeometry>
                </mxCell>
                <mxCell id="ivwsBvlBFXZtL3nu1trw-55" value="1..*" style="edgeLabel;html=1;align=center;verticalAlign=top;resizable=0;points=[];fontSize=18;" parent="ivwsBvlBFXZtL3nu1trw-27" vertex="1" connectable="0">
                    <mxGeometry x="-0.8341" y="1" relative="1" as="geometry">
                        <mxPoint as="offset"/>
                    </mxGeometry>
                </mxCell>
                <mxCell id="ivwsBvlBFXZtL3nu1trw-68" value="register" style="edgeLabel;html=1;align=center;verticalAlign=middle;resizable=0;points=[];fontSize=18;" parent="ivwsBvlBFXZtL3nu1trw-27" vertex="1" connectable="0">
                    <mxGeometry x="-0.2031" relative="1" as="geometry">
                        <mxPoint x="10" y="-21" as="offset"/>
                    </mxGeometry>
                </mxCell>
                <mxCell id="ivwsBvlBFXZtL3nu1trw-38" style="edgeStyle=none;html=1;entryX=0.5;entryY=0;entryDx=0;entryDy=0;strokeWidth=3;fontSize=18;endArrow=none;endFill=0;" parent="1" source="ivwsBvlBFXZtL3nu1trw-23" target="ivwsBvlBFXZtL3nu1trw-35" edge="1">
                    <mxGeometry relative="1" as="geometry"/>
                </mxCell>
                <mxCell id="ivwsBvlBFXZtL3nu1trw-48" value="1" style="edgeLabel;html=1;align=left;verticalAlign=middle;resizable=0;points=[];fontSize=18;" parent="ivwsBvlBFXZtL3nu1trw-38" vertex="1" connectable="0">
                    <mxGeometry x="-0.715" relative="1" as="geometry">
                        <mxPoint as="offset"/>
                    </mxGeometry>
                </mxCell>
                <mxCell id="ivwsBvlBFXZtL3nu1trw-49" value="1" style="edgeLabel;html=1;align=left;verticalAlign=middle;resizable=0;points=[];fontSize=18;" parent="ivwsBvlBFXZtL3nu1trw-38" vertex="1" connectable="0">
                    <mxGeometry x="0.6505" relative="1" as="geometry">
                        <mxPoint as="offset"/>
                    </mxGeometry>
                </mxCell>
                <mxCell id="ivwsBvlBFXZtL3nu1trw-65" value="contain" style="edgeLabel;html=1;align=center;verticalAlign=middle;resizable=0;points=[];fontSize=18;" parent="ivwsBvlBFXZtL3nu1trw-38" vertex="1" connectable="0">
                    <mxGeometry x="-0.3937" y="-3" relative="1" as="geometry">
                        <mxPoint x="43" y="15" as="offset"/>
                    </mxGeometry>
                </mxCell>
                <mxCell id="ivwsBvlBFXZtL3nu1trw-23" value="Orders" style="swimlane;fontStyle=1;childLayout=stackLayout;horizontal=1;startSize=26;fillColor=none;horizontalStack=0;resizeParent=1;resizeParentMax=0;resizeLast=0;collapsible=1;marginBottom=0;fontSize=18;" parent="1" vertex="1">
                    <mxGeometry x="300" y="162" width="140" height="130" as="geometry"/>
                </mxCell>
                <mxCell id="ivwsBvlBFXZtL3nu1trw-24" value="# id" style="text;strokeColor=none;fillColor=none;align=left;verticalAlign=top;spacingLeft=4;spacingRight=4;overflow=hidden;rotatable=0;points=[[0,0.5],[1,0.5]];portConstraint=eastwest;fontSize=15;" parent="ivwsBvlBFXZtL3nu1trw-23" vertex="1">
                    <mxGeometry y="26" width="140" height="26" as="geometry"/>
                </mxCell>
                <mxCell id="ivwsBvlBFXZtL3nu1trw-25" value="# date" style="text;strokeColor=none;fillColor=none;align=left;verticalAlign=top;spacingLeft=4;spacingRight=4;overflow=hidden;rotatable=0;points=[[0,0.5],[1,0.5]];portConstraint=eastwest;fontSize=15;" parent="ivwsBvlBFXZtL3nu1trw-23" vertex="1">
                    <mxGeometry y="52" width="140" height="26" as="geometry"/>
                </mxCell>
                <mxCell id="CJj9vsKW6NzrFs56iuhY-1" value="# category" style="text;strokeColor=none;fillColor=none;align=left;verticalAlign=top;spacingLeft=4;spacingRight=4;overflow=hidden;rotatable=0;points=[[0,0.5],[1,0.5]];portConstraint=eastwest;fontSize=15;" parent="ivwsBvlBFXZtL3nu1trw-23" vertex="1">
                    <mxGeometry y="78" width="140" height="26" as="geometry"/>
                </mxCell>
                <mxCell id="CJj9vsKW6NzrFs56iuhY-2" value="# status" style="text;strokeColor=none;fillColor=none;align=left;verticalAlign=top;spacingLeft=4;spacingRight=4;overflow=hidden;rotatable=0;points=[[0,0.5],[1,0.5]];portConstraint=eastwest;fontSize=15;" parent="ivwsBvlBFXZtL3nu1trw-23" vertex="1">
                    <mxGeometry y="104" width="140" height="26" as="geometry"/>
                </mxCell>
                <mxCell id="ivwsBvlBFXZtL3nu1trw-28" value="Tables" style="swimlane;fontStyle=1;childLayout=stackLayout;horizontal=1;startSize=26;fillColor=none;horizontalStack=0;resizeParent=1;resizeParentMax=0;resizeLast=0;collapsible=1;marginBottom=0;fontSize=18;" parent="1" vertex="1">
                    <mxGeometry x="590" y="386" width="140" height="52" as="geometry"/>
                </mxCell>
                <mxCell id="ivwsBvlBFXZtL3nu1trw-29" value="# number" style="text;strokeColor=none;fillColor=none;align=left;verticalAlign=top;spacingLeft=4;spacingRight=4;overflow=hidden;rotatable=0;points=[[0,0.5],[1,0.5]];portConstraint=eastwest;fontSize=15;" parent="ivwsBvlBFXZtL3nu1trw-28" vertex="1">
                    <mxGeometry y="26" width="140" height="26" as="geometry"/>
                </mxCell>
                <mxCell id="ivwsBvlBFXZtL3nu1trw-32" value="Periods" style="swimlane;fontStyle=1;childLayout=stackLayout;horizontal=1;startSize=26;fillColor=none;horizontalStack=0;resizeParent=1;resizeParentMax=0;resizeLast=0;collapsible=1;marginBottom=0;fontSize=18;" parent="1" vertex="1">
                    <mxGeometry x="300" y="511" width="140" height="78" as="geometry"/>
                </mxCell>
                <mxCell id="ivwsBvlBFXZtL3nu1trw-33" value="# id" style="text;strokeColor=none;fillColor=none;align=left;verticalAlign=top;spacingLeft=4;spacingRight=4;overflow=hidden;rotatable=0;points=[[0,0.5],[1,0.5]];portConstraint=eastwest;fontSize=15;" parent="ivwsBvlBFXZtL3nu1trw-32" vertex="1">
                    <mxGeometry y="26" width="140" height="26" as="geometry"/>
                </mxCell>
                <mxCell id="ivwsBvlBFXZtL3nu1trw-34" value="# date" style="text;strokeColor=none;fillColor=none;align=left;verticalAlign=top;spacingLeft=4;spacingRight=4;overflow=hidden;rotatable=0;points=[[0,0.5],[1,0.5]];portConstraint=eastwest;fontSize=15;" parent="ivwsBvlBFXZtL3nu1trw-32" vertex="1">
                    <mxGeometry y="52" width="140" height="26" as="geometry"/>
                </mxCell>
                <mxCell id="ivwsBvlBFXZtL3nu1trw-39" style="edgeStyle=none;html=1;entryX=0.5;entryY=0;entryDx=0;entryDy=0;strokeWidth=3;fontSize=18;endArrow=none;endFill=0;" parent="1" source="ivwsBvlBFXZtL3nu1trw-35" target="ivwsBvlBFXZtL3nu1trw-32" edge="1">
                    <mxGeometry relative="1" as="geometry"/>
                </mxCell>
                <mxCell id="ivwsBvlBFXZtL3nu1trw-52" value="1" style="edgeLabel;html=1;align=left;verticalAlign=middle;resizable=0;points=[];fontSize=18;" parent="ivwsBvlBFXZtL3nu1trw-39" vertex="1" connectable="0">
                    <mxGeometry x="-0.7491" y="-1" relative="1" as="geometry">
                        <mxPoint as="offset"/>
                    </mxGeometry>
                </mxCell>
                <mxCell id="ivwsBvlBFXZtL3nu1trw-53" value="1" style="edgeLabel;html=1;align=left;verticalAlign=middle;resizable=0;points=[];fontSize=18;" parent="ivwsBvlBFXZtL3nu1trw-39" vertex="1" connectable="0">
                    <mxGeometry x="0.6146" y="-1" relative="1" as="geometry">
                        <mxPoint as="offset"/>
                    </mxGeometry>
                </mxCell>
                <mxCell id="ivwsBvlBFXZtL3nu1trw-66" value="occupy" style="edgeLabel;html=1;align=center;verticalAlign=middle;resizable=0;points=[];fontSize=18;" parent="ivwsBvlBFXZtL3nu1trw-39" vertex="1" connectable="0">
                    <mxGeometry x="-0.4244" relative="1" as="geometry">
                        <mxPoint x="50" y="5" as="offset"/>
                    </mxGeometry>
                </mxCell>
                <mxCell id="ivwsBvlBFXZtL3nu1trw-40" style="edgeStyle=none;html=1;strokeWidth=3;fontSize=18;endArrow=none;endFill=0;" parent="1" source="ivwsBvlBFXZtL3nu1trw-35" edge="1">
                    <mxGeometry relative="1" as="geometry">
                        <mxPoint x="590" y="413.2413793103449" as="targetPoint"/>
                    </mxGeometry>
                </mxCell>
                <mxCell id="ivwsBvlBFXZtL3nu1trw-50" value="1" style="edgeLabel;html=1;align=center;verticalAlign=top;resizable=0;points=[];fontSize=18;" parent="ivwsBvlBFXZtL3nu1trw-40" vertex="1" connectable="0">
                    <mxGeometry x="-0.8187" y="3" relative="1" as="geometry">
                        <mxPoint as="offset"/>
                    </mxGeometry>
                </mxCell>
                <mxCell id="ivwsBvlBFXZtL3nu1trw-51" value="1" style="edgeLabel;html=1;align=center;verticalAlign=top;resizable=0;points=[];fontSize=18;" parent="ivwsBvlBFXZtL3nu1trw-40" vertex="1" connectable="0">
                    <mxGeometry x="0.7368" y="1" relative="1" as="geometry">
                        <mxPoint as="offset"/>
                    </mxGeometry>
                </mxCell>
                <mxCell id="ivwsBvlBFXZtL3nu1trw-67" value="occupy" style="edgeLabel;html=1;align=center;verticalAlign=middle;resizable=0;points=[];fontSize=18;" parent="ivwsBvlBFXZtL3nu1trw-40" vertex="1" connectable="0">
                    <mxGeometry x="-0.2228" y="1" relative="1" as="geometry">
                        <mxPoint x="11" y="-22" as="offset"/>
                    </mxGeometry>
                </mxCell>
                <mxCell id="ivwsBvlBFXZtL3nu1trw-35" value="Details" style="swimlane;fontStyle=1;childLayout=stackLayout;horizontal=1;startSize=26;fillColor=none;horizontalStack=0;resizeParent=1;resizeParentMax=0;resizeLast=0;collapsible=1;marginBottom=0;fontSize=18;" parent="1" vertex="1" collapsed="1">
                    <mxGeometry x="315" y="394" width="110" height="40" as="geometry">
                        <mxRectangle x="540" y="300" width="140" height="52" as="alternateBounds"/>
                    </mxGeometry>
                </mxCell>
                <mxCell id="ivwsBvlBFXZtL3nu1trw-41" style="edgeStyle=none;html=1;strokeWidth=3;fontSize=18;endArrow=none;endFill=0;entryX=0;entryY=0.5;entryDx=0;entryDy=0;" parent="1" source="ivwsBvlBFXZtL3nu1trw-15" target="ivwsBvlBFXZtL3nu1trw-24" edge="1">
                    <mxGeometry relative="1" as="geometry"/>
                </mxCell>
                <mxCell id="ivwsBvlBFXZtL3nu1trw-44" value="1" style="edgeLabel;html=1;align=center;verticalAlign=top;resizable=0;points=[];fontSize=18;" parent="ivwsBvlBFXZtL3nu1trw-41" vertex="1" connectable="0">
                    <mxGeometry x="-0.8342" y="1" relative="1" as="geometry">
                        <mxPoint as="offset"/>
                    </mxGeometry>
                </mxCell>
                <mxCell id="ivwsBvlBFXZtL3nu1trw-45" value="0..*" style="edgeLabel;html=1;align=center;verticalAlign=top;resizable=0;points=[];fontSize=18;" parent="ivwsBvlBFXZtL3nu1trw-41" vertex="1" connectable="0">
                    <mxGeometry x="0.7075" y="1" relative="1" as="geometry">
                        <mxPoint as="offset"/>
                    </mxGeometry>
                </mxCell>
                <mxCell id="ivwsBvlBFXZtL3nu1trw-63" value="access" style="edgeLabel;html=1;align=center;verticalAlign=middle;resizable=0;points=[];fontSize=18;" parent="ivwsBvlBFXZtL3nu1trw-41" vertex="1" connectable="0">
                    <mxGeometry x="-0.3064" y="2" relative="1" as="geometry">
                        <mxPoint x="18" y="-19" as="offset"/>
                    </mxGeometry>
                </mxCell>
                <mxCell id="ivwsBvlBFXZtL3nu1trw-69" value="" style="triangle;whiteSpace=wrap;html=1;fontSize=18;" parent="1" vertex="1">
                    <mxGeometry x="515" y="80" width="20" height="26.67" as="geometry"/>
                </mxCell>
                <mxCell id="ivwsBvlBFXZtL3nu1trw-70" value="" style="triangle;whiteSpace=wrap;html=1;fontSize=18;rotation=0;" parent="1" vertex="1">
                    <mxGeometry x="260" y="240" width="20" height="26.67" as="geometry"/>
                </mxCell>
                <mxCell id="ivwsBvlBFXZtL3nu1trw-72" value="" style="triangle;whiteSpace=wrap;html=1;fontSize=18;rotation=0;" parent="1" vertex="1">
                    <mxGeometry x="550" y="381" width="20" height="26.67" as="geometry"/>
                </mxCell>
                <mxCell id="ivwsBvlBFXZtL3nu1trw-73" value="" style="triangle;whiteSpace=wrap;html=1;fontSize=18;rotation=90;" parent="1" vertex="1">
                    <mxGeometry x="400" y="479.33" width="20" height="26.67" as="geometry"/>
                </mxCell>
                <mxCell id="ivwsBvlBFXZtL3nu1trw-74" value="" style="triangle;whiteSpace=wrap;html=1;fontSize=18;rotation=-180;" parent="1" vertex="1">
                    <mxGeometry x="448" y="165" width="20" height="26.67" as="geometry"/>
                </mxCell>
                <mxCell id="ivwsBvlBFXZtL3nu1trw-75" value="" style="triangle;whiteSpace=wrap;html=1;fontSize=18;" parent="1" vertex="1">
                    <mxGeometry x="270" y="140" width="20" height="26.67" as="geometry"/>
                </mxCell>
                <mxCell id="ivwsBvlBFXZtL3nu1trw-76" value="" style="triangle;whiteSpace=wrap;html=1;fontSize=18;rotation=90;" parent="1" vertex="1">
                    <mxGeometry x="400" y="360.33" width="20" height="26.67" as="geometry"/>
                </mxCell>
                <mxCell id="CJj9vsKW6NzrFs56iuhY-5" value="" style="triangle;whiteSpace=wrap;html=1;fontSize=18;rotation=0;" parent="1" vertex="1">
                    <mxGeometry x="110" y="630" width="20" height="26.67" as="geometry"/>
                </mxCell>
            </root>
        </mxGraphModel>
    </diagram>
    <diagram id="AscKv5OJ8TlSJ3xA4gjY" name="2b">
        <mxGraphModel dx="733" dy="649" grid="1" gridSize="10" guides="1" tooltips="1" connect="1" arrows="1" fold="1" page="1" pageScale="1" pageWidth="827" pageHeight="1169" math="0" shadow="0">
            <root>
                <mxCell id="0"/>
                <mxCell id="1" parent="0"/>
                <mxCell id="JCcPmYWOmD5JrleA-w_9-1" value="&lt;div style=&quot;color: rgb(204, 204, 204); background-color: rgb(31, 31, 31); line-height: 19px;&quot;&gt;&lt;font style=&quot;font-size: 13px;&quot;&gt;政府退稅申請系統&lt;/font&gt;&lt;/div&gt;" style="swimlane;whiteSpace=wrap;html=1;" parent="1" vertex="1">
                    <mxGeometry x="110" y="100" width="470" height="370" as="geometry"/>
                </mxCell>
                <mxCell id="JCcPmYWOmD5JrleA-w_9-2" value="&lt;span style=&quot;color: rgb(230, 237, 243); text-align: start; background-color: rgb(13, 17, 23);&quot;&gt;&lt;b style=&quot;&quot;&gt;&lt;font style=&quot;font-size: 12px;&quot;&gt;申請人提交申請案例&lt;/font&gt;&lt;/b&gt;&lt;/span&gt;" style="ellipse;whiteSpace=wrap;html=1;" parent="JCcPmYWOmD5JrleA-w_9-1" vertex="1">
                    <mxGeometry x="30" y="60" width="120" height="60" as="geometry"/>
                </mxCell>
                <mxCell id="fmK3Yu0j4ZAgnt5Yr5rZ-2" value="&lt;span style=&quot;color: rgb(230, 237, 243); font-family: -apple-system, BlinkMacSystemFont, &amp;quot;Segoe UI&amp;quot;, &amp;quot;Noto Sans&amp;quot;, Helvetica, Arial, sans-serif, &amp;quot;Apple Color Emoji&amp;quot;, &amp;quot;Segoe UI Emoji&amp;quot;; text-align: start; background-color: rgb(22, 27, 34);&quot;&gt;政府機關審核申請案例&lt;/span&gt;" style="ellipse;whiteSpace=wrap;html=1;" vertex="1" parent="JCcPmYWOmD5JrleA-w_9-1">
                    <mxGeometry x="60" y="180" width="120" height="60" as="geometry"/>
                </mxCell>
                <mxCell id="fmK3Yu0j4ZAgnt5Yr5rZ-3" value="&lt;span style=&quot;color: rgb(230, 237, 243); text-align: start; background-color: rgb(22, 27, 34);&quot;&gt;&lt;font size=&quot;1&quot; style=&quot;&quot;&gt;&lt;b style=&quot;font-size: 12px;&quot;&gt;製作JSON格式案例&lt;/b&gt;&lt;/font&gt;&lt;/span&gt;" style="ellipse;whiteSpace=wrap;html=1;" vertex="1" parent="JCcPmYWOmD5JrleA-w_9-1">
                    <mxGeometry x="304" y="170" width="120" height="60" as="geometry"/>
                </mxCell>
                <mxCell id="fmK3Yu0j4ZAgnt5Yr5rZ-4" value="&lt;span style=&quot;color: rgb(230, 237, 243); text-align: start; background-color: rgb(13, 17, 23);&quot;&gt;&lt;font size=&quot;1&quot; style=&quot;&quot;&gt;&lt;b style=&quot;font-size: 12px;&quot;&gt;生成發放名單案例&lt;/b&gt;&lt;/font&gt;&lt;/span&gt;" style="ellipse;whiteSpace=wrap;html=1;" vertex="1" parent="JCcPmYWOmD5JrleA-w_9-1">
                    <mxGeometry x="60" y="280" width="120" height="60" as="geometry"/>
                </mxCell>
                <mxCell id="fmK3Yu0j4ZAgnt5Yr5rZ-5" value="&lt;span style=&quot;color: rgb(230, 237, 243); text-align: start; background-color: rgb(13, 17, 23);&quot;&gt;&lt;font style=&quot;font-size: 12px;&quot;&gt;&lt;b style=&quot;&quot;&gt;產生傳送報表案例&lt;/b&gt;&lt;/font&gt;&lt;/span&gt;" style="ellipse;whiteSpace=wrap;html=1;" vertex="1" parent="JCcPmYWOmD5JrleA-w_9-1">
                    <mxGeometry x="280" y="280" width="120" height="60" as="geometry"/>
                </mxCell>
                <mxCell id="JbetCVBgaIzgapVWvZnu-7" style="edgeStyle=none;html=1;exitX=0.5;exitY=0.5;exitDx=0;exitDy=0;exitPerimeter=0;entryX=0;entryY=0.5;entryDx=0;entryDy=0;strokeWidth=5;fontFamily=Helvetica;fontSize=12;endArrow=none;endFill=0;" edge="1" parent="1" source="JCcPmYWOmD5JrleA-w_9-6" target="JCcPmYWOmD5JrleA-w_9-2">
                    <mxGeometry relative="1" as="geometry"/>
                </mxCell>
                <mxCell id="JbetCVBgaIzgapVWvZnu-9" style="edgeStyle=none;html=1;exitX=0.5;exitY=0.5;exitDx=0;exitDy=0;exitPerimeter=0;entryX=0;entryY=0.5;entryDx=0;entryDy=0;strokeWidth=5;fontFamily=Helvetica;fontSize=12;endArrow=none;endFill=0;" edge="1" parent="1" source="JCcPmYWOmD5JrleA-w_9-6" target="fmK3Yu0j4ZAgnt5Yr5rZ-4">
                    <mxGeometry relative="1" as="geometry"/>
                </mxCell>
                <mxCell id="JCcPmYWOmD5JrleA-w_9-6" value="申請人" style="shape=umlActor;verticalLabelPosition=bottom;verticalAlign=top;html=1;outlineConnect=0;" parent="1" vertex="1">
                    <mxGeometry x="40" y="169" width="30" height="60" as="geometry"/>
                </mxCell>
                <mxCell id="JbetCVBgaIzgapVWvZnu-8" style="edgeStyle=none;html=1;exitX=0.5;exitY=0.5;exitDx=0;exitDy=0;exitPerimeter=0;entryX=0.014;entryY=0.429;entryDx=0;entryDy=0;entryPerimeter=0;strokeWidth=5;fontFamily=Helvetica;fontSize=12;endArrow=none;endFill=0;" edge="1" parent="1" source="JbetCVBgaIzgapVWvZnu-3" target="fmK3Yu0j4ZAgnt5Yr5rZ-2">
                    <mxGeometry relative="1" as="geometry"/>
                </mxCell>
                <mxCell id="JbetCVBgaIzgapVWvZnu-3" value="&lt;span style=&quot;color: rgb(230, 237, 243); text-align: start; background-color: rgb(13, 17, 23);&quot;&gt;&lt;font style=&quot;font-size: 12px;&quot;&gt;政府機關人員&lt;/font&gt;&lt;/span&gt;" style="shape=umlActor;verticalLabelPosition=bottom;verticalAlign=top;html=1;outlineConnect=0;" vertex="1" parent="1">
                    <mxGeometry x="40" y="280" width="30" height="60" as="geometry"/>
                </mxCell>
                <mxCell id="JbetCVBgaIzgapVWvZnu-10" style="edgeStyle=none;html=1;exitX=0.5;exitY=0.5;exitDx=0;exitDy=0;exitPerimeter=0;entryX=1;entryY=0.5;entryDx=0;entryDy=0;strokeWidth=5;fontFamily=Helvetica;fontSize=12;endArrow=none;endFill=0;" edge="1" parent="1" source="JbetCVBgaIzgapVWvZnu-4" target="fmK3Yu0j4ZAgnt5Yr5rZ-3">
                    <mxGeometry relative="1" as="geometry"/>
                </mxCell>
                <mxCell id="JbetCVBgaIzgapVWvZnu-4" value="&lt;span style=&quot;color: rgb(230, 237, 243); font-family: -apple-system, BlinkMacSystemFont, &amp;quot;Segoe UI&amp;quot;, &amp;quot;Noto Sans&amp;quot;, Helvetica, Arial, sans-serif, &amp;quot;Apple Color Emoji&amp;quot;, &amp;quot;Segoe UI Emoji&amp;quot;; text-align: start; background-color: rgb(13, 17, 23);&quot;&gt;第三方金融機構&lt;/span&gt;" style="shape=umlActor;verticalLabelPosition=bottom;verticalAlign=top;html=1;outlineConnect=0;" vertex="1" parent="1">
                    <mxGeometry x="600" y="260" width="30" height="60" as="geometry"/>
                </mxCell>
                <mxCell id="JbetCVBgaIzgapVWvZnu-6" value="&lt;span style=&quot;color: rgb(230, 237, 243); text-align: start; background-color: rgb(22, 27, 34);&quot;&gt;&lt;font style=&quot;font-size: 12px;&quot;&gt;健保局&lt;/font&gt;&lt;/span&gt;" style="shape=umlActor;verticalLabelPosition=bottom;verticalAlign=top;html=1;outlineConnect=0;labelBackgroundColor=none;fontFamily=Helvetica;fontSize=12;" vertex="1" parent="1">
                    <mxGeometry x="50" y="380" width="30" height="60" as="geometry"/>
                </mxCell>
            </root>
        </mxGraphModel>
    </diagram>
    <diagram id="QDUn_HagIqShFcM0Ceg7" name="2c">
        <mxGraphModel dx="880" dy="779" grid="1" gridSize="10" guides="1" tooltips="1" connect="1" arrows="1" fold="1" page="1" pageScale="1" pageWidth="1169" pageHeight="827" math="0" shadow="0">
            <root>
                <mxCell id="0"/>
                <mxCell id="1" parent="0"/>
                <mxCell id="pcl4Aaw8b7eVd5OjCLie-26" style="edgeStyle=none;html=1;entryX=0.5;entryY=0;entryDx=0;entryDy=0;strokeWidth=4;fontSize=18;startArrow=none;startFill=0;endArrow=openThin;endFill=0;" parent="1" source="pcl4Aaw8b7eVd5OjCLie-1" target="pcl4Aaw8b7eVd5OjCLie-3" edge="1">
                    <mxGeometry relative="1" as="geometry"/>
                </mxCell>
                <mxCell id="pcl4Aaw8b7eVd5OjCLie-1" value="" style="ellipse;fillColor=strokeColor;" parent="1" vertex="1">
                    <mxGeometry x="315" y="20" width="30" height="30" as="geometry"/>
                </mxCell>
                <mxCell id="pcl4Aaw8b7eVd5OjCLie-2" value="" style="ellipse;html=1;shape=endState;fillColor=strokeColor;" parent="1" vertex="1">
                    <mxGeometry x="315.5" y="504" width="30" height="30" as="geometry"/>
                </mxCell>
                <mxCell id="pcl4Aaw8b7eVd5OjCLie-13" style="edgeStyle=none;html=1;fontSize=18;endArrow=openThin;endFill=0;strokeWidth=4;" parent="1" source="pcl4Aaw8b7eVd5OjCLie-3" target="pcl4Aaw8b7eVd5OjCLie-12" edge="1">
                    <mxGeometry relative="1" as="geometry"/>
                </mxCell>
                <mxCell id="pcl4Aaw8b7eVd5OjCLie-3" value="&lt;font style=&quot;font-size: 18px;&quot;&gt;&lt;b&gt;打開申請頁&lt;/b&gt;&lt;/font&gt;" style="html=1;align=center;verticalAlign=middle;rounded=1;absoluteArcSize=1;arcSize=10;dashed=0;strokeWidth=2;perimeterSpacing=0;" parent="1" vertex="1">
                    <mxGeometry x="260" y="80" width="140" height="40" as="geometry"/>
                </mxCell>
                <mxCell id="pcl4Aaw8b7eVd5OjCLie-5" value="&lt;font style=&quot;font-size: 18px;&quot;&gt;&lt;b&gt;填寫身分證&lt;/b&gt;&lt;/font&gt;" style="html=1;align=center;verticalAlign=middle;rounded=1;absoluteArcSize=1;arcSize=10;dashed=0;strokeWidth=2;perimeterSpacing=0;" parent="1" vertex="1">
                    <mxGeometry x="30" y="260" width="140" height="40" as="geometry"/>
                </mxCell>
                <mxCell id="pcl4Aaw8b7eVd5OjCLie-7" value="&lt;font style=&quot;font-size: 18px;&quot;&gt;&lt;b&gt;代領金融號與申請人機構帳號&lt;/b&gt;&lt;/font&gt;" style="html=1;align=center;verticalAlign=middle;rounded=1;absoluteArcSize=1;arcSize=10;dashed=0;strokeWidth=2;perimeterSpacing=0;" parent="1" vertex="1">
                    <mxGeometry x="189" y="260" width="280" height="40" as="geometry"/>
                </mxCell>
                <mxCell id="pcl4Aaw8b7eVd5OjCLie-10" value="&lt;font style=&quot;font-size: 18px;&quot;&gt;&lt;b&gt;健保卡卡號&lt;/b&gt;&lt;/font&gt;" style="html=1;align=center;verticalAlign=middle;rounded=1;absoluteArcSize=1;arcSize=10;dashed=0;strokeWidth=2;perimeterSpacing=0;" parent="1" vertex="1">
                    <mxGeometry x="490" y="260" width="140" height="40" as="geometry"/>
                </mxCell>
                <mxCell id="pcl4Aaw8b7eVd5OjCLie-25" style="edgeStyle=none;html=1;entryX=0.5;entryY=0;entryDx=0;entryDy=0;strokeWidth=4;fontSize=18;startArrow=none;startFill=0;endArrow=openThin;endFill=0;" parent="1" source="pcl4Aaw8b7eVd5OjCLie-11" target="pcl4Aaw8b7eVd5OjCLie-2" edge="1">
                    <mxGeometry relative="1" as="geometry"/>
                </mxCell>
                <mxCell id="pcl4Aaw8b7eVd5OjCLie-11" value="&lt;font style=&quot;font-size: 18px;&quot;&gt;&lt;b&gt;將資料送出&lt;/b&gt;&lt;/font&gt;" style="html=1;align=center;verticalAlign=middle;rounded=1;absoluteArcSize=1;arcSize=10;dashed=0;strokeWidth=2;perimeterSpacing=0;" parent="1" vertex="1">
                    <mxGeometry x="259.5" y="420" width="140" height="40" as="geometry"/>
                </mxCell>
                <mxCell id="pcl4Aaw8b7eVd5OjCLie-14" style="edgeStyle=none;html=1;strokeWidth=4;fontSize=18;endArrow=openThin;endFill=0;" parent="1" source="pcl4Aaw8b7eVd5OjCLie-12" target="pcl4Aaw8b7eVd5OjCLie-7" edge="1">
                    <mxGeometry relative="1" as="geometry"/>
                </mxCell>
                <mxCell id="pcl4Aaw8b7eVd5OjCLie-15" style="edgeStyle=none;html=1;entryX=0.5;entryY=0;entryDx=0;entryDy=0;strokeWidth=4;fontSize=18;endArrow=openThin;endFill=0;" parent="1" source="pcl4Aaw8b7eVd5OjCLie-12" target="pcl4Aaw8b7eVd5OjCLie-5" edge="1">
                    <mxGeometry relative="1" as="geometry">
                        <Array as="points">
                            <mxPoint x="330" y="230"/>
                            <mxPoint x="100" y="230"/>
                        </Array>
                    </mxGeometry>
                </mxCell>
                <mxCell id="pcl4Aaw8b7eVd5OjCLie-16" style="edgeStyle=none;html=1;entryX=0.5;entryY=0;entryDx=0;entryDy=0;strokeWidth=4;fontSize=18;endArrow=openThin;endFill=0;exitX=0.236;exitY=0.516;exitDx=0;exitDy=0;exitPerimeter=0;" parent="1" source="pcl4Aaw8b7eVd5OjCLie-12" target="pcl4Aaw8b7eVd5OjCLie-10" edge="1">
                    <mxGeometry relative="1" as="geometry">
                        <Array as="points">
                            <mxPoint x="330" y="230"/>
                            <mxPoint x="560" y="230"/>
                        </Array>
                    </mxGeometry>
                </mxCell>
                <mxCell id="pcl4Aaw8b7eVd5OjCLie-12" value="" style="html=1;points=[];perimeter=orthogonalPerimeter;fillColor=strokeColor;rounded=1;strokeWidth=2;fontSize=18;rotation=90;" parent="1" vertex="1">
                    <mxGeometry x="329" y="105" width="5" height="130" as="geometry"/>
                </mxCell>
                <mxCell id="pcl4Aaw8b7eVd5OjCLie-21" style="edgeStyle=none;html=1;entryX=0.5;entryY=1;entryDx=0;entryDy=0;strokeWidth=4;fontSize=18;endArrow=none;endFill=0;startArrow=openThin;startFill=0;" parent="1" source="pcl4Aaw8b7eVd5OjCLie-17" target="pcl4Aaw8b7eVd5OjCLie-7" edge="1">
                    <mxGeometry relative="1" as="geometry"/>
                </mxCell>
                <mxCell id="pcl4Aaw8b7eVd5OjCLie-22" style="edgeStyle=none;html=1;entryX=0.5;entryY=1;entryDx=0;entryDy=0;strokeWidth=4;fontSize=18;startArrow=openThin;startFill=0;endArrow=none;endFill=0;" parent="1" source="pcl4Aaw8b7eVd5OjCLie-17" target="pcl4Aaw8b7eVd5OjCLie-10" edge="1">
                    <mxGeometry relative="1" as="geometry">
                        <Array as="points">
                            <mxPoint x="330" y="330"/>
                            <mxPoint x="560" y="330"/>
                        </Array>
                    </mxGeometry>
                </mxCell>
                <mxCell id="pcl4Aaw8b7eVd5OjCLie-23" style="edgeStyle=none;html=1;entryX=0.5;entryY=1;entryDx=0;entryDy=0;strokeWidth=4;fontSize=18;startArrow=openThin;startFill=0;endArrow=none;endFill=0;" parent="1" source="pcl4Aaw8b7eVd5OjCLie-17" target="pcl4Aaw8b7eVd5OjCLie-5" edge="1">
                    <mxGeometry relative="1" as="geometry">
                        <Array as="points">
                            <mxPoint x="330" y="330"/>
                            <mxPoint x="100" y="330"/>
                        </Array>
                    </mxGeometry>
                </mxCell>
                <mxCell id="pcl4Aaw8b7eVd5OjCLie-24" style="edgeStyle=none;html=1;strokeWidth=4;fontSize=18;startArrow=none;startFill=0;endArrow=openThin;endFill=0;" parent="1" source="pcl4Aaw8b7eVd5OjCLie-17" target="pcl4Aaw8b7eVd5OjCLie-11" edge="1">
                    <mxGeometry relative="1" as="geometry"/>
                </mxCell>
                <mxCell id="pcl4Aaw8b7eVd5OjCLie-17" value="" style="html=1;points=[];perimeter=orthogonalPerimeter;fillColor=strokeColor;rounded=1;strokeWidth=2;fontSize=18;rotation=90;" parent="1" vertex="1">
                    <mxGeometry x="327.5" y="306" width="5" height="130" as="geometry"/>
                </mxCell>
            </root>
        </mxGraphModel>
    </diagram>
    <diagram id="jKp8lnFoO_ODNvvGuu6S" name="2d">
        <mxGraphModel dx="1102" dy="779" grid="1" gridSize="10" guides="1" tooltips="1" connect="1" arrows="1" fold="1" page="1" pageScale="1" pageWidth="827" pageHeight="1169" math="0" shadow="0">
            <root>
                <mxCell id="0"/>
                <mxCell id="1" parent="0"/>
                <mxCell id="gDdTe_Zd4fGKzXuy0jV_-1" value="Form" style="swimlane;fontStyle=0;childLayout=stackLayout;horizontal=1;startSize=26;fillColor=none;horizontalStack=0;resizeParent=1;resizeParentMax=0;resizeLast=0;collapsible=1;marginBottom=0;fontSize=16;" parent="1" vertex="1">
                    <mxGeometry x="400" y="106" width="180" height="104" as="geometry"/>
                </mxCell>
                <mxCell id="gDdTe_Zd4fGKzXuy0jV_-2" value="id: int" style="text;strokeColor=none;fillColor=none;align=left;verticalAlign=top;spacingLeft=4;spacingRight=4;overflow=hidden;rotatable=0;points=[[0,0.5],[1,0.5]];portConstraint=eastwest;fontSize=16;" parent="gDdTe_Zd4fGKzXuy0jV_-1" vertex="1">
                    <mxGeometry y="26" width="180" height="26" as="geometry"/>
                </mxCell>
                <mxCell id="gDdTe_Zd4fGKzXuy0jV_-3" value="bankId: int" style="text;strokeColor=none;fillColor=none;align=left;verticalAlign=top;spacingLeft=4;spacingRight=4;overflow=hidden;rotatable=0;points=[[0,0.5],[1,0.5]];portConstraint=eastwest;fontSize=16;" parent="gDdTe_Zd4fGKzXuy0jV_-1" vertex="1">
                    <mxGeometry y="52" width="180" height="26" as="geometry"/>
                </mxCell>
                <mxCell id="gDdTe_Zd4fGKzXuy0jV_-4" value="bankAccount: string" style="text;strokeColor=none;fillColor=none;align=left;verticalAlign=top;spacingLeft=4;spacingRight=4;overflow=hidden;rotatable=0;points=[[0,0.5],[1,0.5]];portConstraint=eastwest;fontSize=16;" parent="gDdTe_Zd4fGKzXuy0jV_-1" vertex="1">
                    <mxGeometry y="78" width="180" height="26" as="geometry"/>
                </mxCell>
                <mxCell id="gDdTe_Zd4fGKzXuy0jV_-5" value="User" style="swimlane;fontStyle=0;childLayout=stackLayout;horizontal=1;startSize=26;fillColor=none;horizontalStack=0;resizeParent=1;resizeParentMax=0;resizeLast=0;collapsible=1;marginBottom=0;fontSize=16;" parent="1" vertex="1">
                    <mxGeometry x="80" y="80" width="180" height="156" as="geometry"/>
                </mxCell>
                <mxCell id="gDdTe_Zd4fGKzXuy0jV_-6" value="id: int" style="text;strokeColor=none;fillColor=none;align=left;verticalAlign=top;spacingLeft=4;spacingRight=4;overflow=hidden;rotatable=0;points=[[0,0.5],[1,0.5]];portConstraint=eastwest;fontSize=16;" parent="gDdTe_Zd4fGKzXuy0jV_-5" vertex="1">
                    <mxGeometry y="26" width="180" height="26" as="geometry"/>
                </mxCell>
                <mxCell id="gDdTe_Zd4fGKzXuy0jV_-7" value="Uid: string" style="text;strokeColor=none;fillColor=none;align=left;verticalAlign=top;spacingLeft=4;spacingRight=4;overflow=hidden;rotatable=0;points=[[0,0.5],[1,0.5]];portConstraint=eastwest;fontSize=16;" parent="gDdTe_Zd4fGKzXuy0jV_-5" vertex="1">
                    <mxGeometry y="52" width="180" height="26" as="geometry"/>
                </mxCell>
                <mxCell id="gDdTe_Zd4fGKzXuy0jV_-8" value="name: string" style="text;strokeColor=none;fillColor=none;align=left;verticalAlign=top;spacingLeft=4;spacingRight=4;overflow=hidden;rotatable=0;points=[[0,0.5],[1,0.5]];portConstraint=eastwest;fontSize=16;" parent="gDdTe_Zd4fGKzXuy0jV_-5" vertex="1">
                    <mxGeometry y="78" width="180" height="26" as="geometry"/>
                </mxCell>
                <mxCell id="gDdTe_Zd4fGKzXuy0jV_-9" value="phoneNumber: string" style="text;strokeColor=none;fillColor=none;align=left;verticalAlign=top;spacingLeft=4;spacingRight=4;overflow=hidden;rotatable=0;points=[[0,0.5],[1,0.5]];portConstraint=eastwest;fontSize=16;" parent="gDdTe_Zd4fGKzXuy0jV_-5" vertex="1">
                    <mxGeometry y="104" width="180" height="26" as="geometry"/>
                </mxCell>
                <mxCell id="gDdTe_Zd4fGKzXuy0jV_-10" value="cardId: string" style="text;strokeColor=none;fillColor=none;align=left;verticalAlign=top;spacingLeft=4;spacingRight=4;overflow=hidden;rotatable=0;points=[[0,0.5],[1,0.5]];portConstraint=eastwest;fontSize=16;" parent="gDdTe_Zd4fGKzXuy0jV_-5" vertex="1">
                    <mxGeometry y="130" width="180" height="26" as="geometry"/>
                </mxCell>
                <mxCell id="gDdTe_Zd4fGKzXuy0jV_-11" style="edgeStyle=none;html=1;entryX=0;entryY=0.5;entryDx=0;entryDy=0;endArrow=none;endFill=0;" parent="1" source="gDdTe_Zd4fGKzXuy0jV_-8" target="gDdTe_Zd4fGKzXuy0jV_-3" edge="1">
                    <mxGeometry relative="1" as="geometry"/>
                </mxCell>
                <mxCell id="gDdTe_Zd4fGKzXuy0jV_-12" value="1" style="edgeLabel;html=1;align=center;verticalAlign=top;resizable=0;points=[];fontSize=20;" parent="gDdTe_Zd4fGKzXuy0jV_-11" vertex="1" connectable="0">
                    <mxGeometry x="-0.6943" y="-1" relative="1" as="geometry">
                        <mxPoint as="offset"/>
                    </mxGeometry>
                </mxCell>
                <mxCell id="gDdTe_Zd4fGKzXuy0jV_-13" value="1" style="edgeLabel;html=1;align=center;verticalAlign=top;resizable=0;points=[];fontSize=20;" parent="gDdTe_Zd4fGKzXuy0jV_-11" vertex="1" connectable="0">
                    <mxGeometry x="0.7629" relative="1" as="geometry">
                        <mxPoint as="offset"/>
                    </mxGeometry>
                </mxCell>
                <mxCell id="gDdTe_Zd4fGKzXuy0jV_-14" value="Own" style="edgeLabel;html=1;align=center;verticalAlign=top;resizable=0;points=[];fontSize=20;" parent="gDdTe_Zd4fGKzXuy0jV_-11" vertex="1" connectable="0">
                    <mxGeometry x="0.2629" relative="1" as="geometry">
                        <mxPoint as="offset"/>
                    </mxGeometry>
                </mxCell>
                <mxCell id="gDdTe_Zd4fGKzXuy0jV_-15" value="" style="triangle;whiteSpace=wrap;html=1;fontSize=16;rotation=120;" parent="1" vertex="1">
                    <mxGeometry x="370" y="140" width="10" height="13.34" as="geometry"/>
                </mxCell>
            </root>
        </mxGraphModel>
    </diagram>
</mxfile>